<svg xmlns="http://www.w3.org/2000/svg" viewBox="0 0 317 467"><defs><style>.cls-1,.cls-2{fill:none;stroke:#000;stroke-miterlimit:5;}.cls-1{stroke-width:3px;}.cls-2{stroke-width:2px;}</style></defs><title>crp资源 1</title><g id="图层_2" data-name="图层 2"><g id="图层_1-2" data-name="图层 1"><path d="M37,21h4.76c5.86,0,9,3.4,9,9.45s-3.13,9.59-8.88,9.59H37Zm4.58,17c4.45,0,6.67-2.79,6.67-7.6S46,23,41.59,23H39.43V38.08Z"/><path d="M53.75,30.48c0-6.1,3.36-9.8,8.14-9.8S70,24.4,70,30.48s-3.36,9.94-8.14,9.94S53.75,36.58,53.75,30.48Zm13.77,0c0-4.74-2.23-7.67-5.63-7.67s-5.64,2.93-5.64,7.67,2.24,7.81,5.64,7.81S67.52,35.23,67.52,30.48Z"/><path d="M74.12,21H77L80.69,31.2c.45,1.31.89,2.65,1.35,4h.11c.46-1.32.86-2.66,1.32-4L87.08,21H90v19H87.74V29.59c0-1.66.19-3.95.31-5.63h-.11L86.42,28.3l-3.58,9.85H81.23l-3.6-9.85L76.12,24H76c.13,1.68.31,4,.31,5.63V40.07H74.12Z"/><rect class="cls-1" x="2.5" y="1.5" width="123" height="54" rx="12" ry="12"/><path d="M20.63,167.57c0-6.14,3.61-9.89,8.44-9.89A7.1,7.1,0,0,1,34.31,160L33,161.61a5.17,5.17,0,0,0-3.86-1.8c-3.6,0-6,2.95-6,7.69s2.28,7.79,5.89,7.79a5.72,5.72,0,0,0,4.42-2.14l1.32,1.52a7.32,7.32,0,0,1-5.84,2.75C24.18,177.42,20.63,173.75,20.63,167.57Z"/><path d="M36.21,174.59l1.45-1.66a7.44,7.44,0,0,0,5.25,2.36c2.5,0,4-1.25,4-3.1s-1.38-2.56-3.17-3.35L41,167.64c-1.77-.76-3.85-2.1-3.85-4.9s2.53-5.06,6-5.06a7.83,7.83,0,0,1,5.6,2.36l-1.28,1.56a6.1,6.1,0,0,0-4.32-1.79c-2.14,0-3.55,1.08-3.55,2.78s1.66,2.52,3.15,3.15l2.71,1.18c2.21.94,3.93,2.26,3.93,5.09,0,3-2.49,5.41-6.49,5.41A9.11,9.11,0,0,1,36.21,174.59Z"/><path d="M51.28,174.59l1.45-1.66A7.44,7.44,0,0,0,58,175.29c2.5,0,4-1.25,4-3.1s-1.38-2.56-3.17-3.35l-2.74-1.2c-1.77-.76-3.85-2.1-3.85-4.9s2.53-5.06,6-5.06a7.83,7.83,0,0,1,5.6,2.36l-1.28,1.56a6.1,6.1,0,0,0-4.32-1.79c-2.14,0-3.55,1.08-3.55,2.78s1.66,2.52,3.15,3.15l2.71,1.18c2.21.94,3.93,2.26,3.93,5.09,0,3-2.49,5.41-6.49,5.41A9.11,9.11,0,0,1,51.28,174.59Z"/><path d="M67,167.48c0-6.1,3.36-9.8,8.14-9.8s8.13,3.72,8.13,9.8-3.35,9.94-8.13,9.94S67,173.58,67,167.48Zm13.77,0c0-4.74-2.23-7.67-5.63-7.67s-5.64,2.93-5.64,7.67,2.24,7.81,5.64,7.81S80.8,172.23,80.8,167.48Z"/><path d="M87.4,158h2.91L94,168.2c.46,1.31.9,2.65,1.36,4h.11c.46-1.32.86-2.66,1.32-4L100.36,158h2.91v19H101V166.59c0-1.66.19-4,.31-5.63h-.12L99.7,165.3l-3.58,9.85H94.51l-3.6-9.85L89.4,161h-.12c.13,1.68.31,4,.31,5.63v10.48H87.4Z"/><rect class="cls-1" x="1.5" y="138.5" width="123" height="54" rx="12" ry="12"/><path d="M21.61,247h6c3.87,0,6.66,1.39,6.66,5.36,0,3.8-2.79,5.63-6.66,5.63H24v8.05H21.61Zm5.62,9c3,0,4.59-1.2,4.59-3.67S30.19,249,27.23,249H24v7.06Zm-.13,1.3,1.9-1.25,5.81,10H32.06Z"/><path d="M36.56,259c0-4.59,3.1-7.42,6.34-7.42,3.6,0,5.63,2.58,5.63,6.62a7.35,7.35,0,0,1-.11,1.35h-9.5c.17,3,2,4.93,4.69,4.93a6.19,6.19,0,0,0,3.51-1.13L48,265a8.37,8.37,0,0,1-4.66,1.46C39.56,266.42,36.56,263.67,36.56,259Zm9.86-1.16c0-2.82-1.27-4.36-3.48-4.36-2,0-3.75,1.59-4,4.36Z"/><path d="M52,252h2l.2,2h.08A6.72,6.72,0,0,1,59,251.62c3,0,4.3,1.92,4.3,5.52v8.93H60.89v-8.63c0-2.62-.8-3.75-2.66-3.75-1.45,0-2.44.74-3.86,2.17v10.21H52Z"/><path d="M66.83,259c0-4.58,2.89-7.42,6.1-7.42a5.75,5.75,0,0,1,3.95,1.64l-.1-2.42V245.4h2.39v20.67h-2l-.2-1.66h-.08a6.27,6.27,0,0,1-4.28,2C69.12,266.42,66.83,263.74,66.83,259Zm10,3.45V255.1a4.92,4.92,0,0,0-3.44-1.47c-2.25,0-4,2.17-4,5.39,0,3.38,1.4,5.39,3.87,5.39A4.88,4.88,0,0,0,76.78,262.49Z"/><path d="M82.88,259c0-4.59,3.09-7.42,6.33-7.42,3.6,0,5.63,2.58,5.63,6.62a7.35,7.35,0,0,1-.11,1.35h-9.5c.18,3,2,4.93,4.69,4.93a6.19,6.19,0,0,0,3.51-1.13l.85,1.57a8.34,8.34,0,0,1-4.65,1.46C85.87,266.42,82.88,263.67,82.88,259Zm9.85-1.16c0-2.82-1.27-4.36-3.47-4.36-2,0-3.76,1.59-4.05,4.36Z"/><path d="M98.3,252h2l.2,2.57h.08c1-1.79,2.42-2.92,4-2.92a3.27,3.27,0,0,1,1.5.29l-.44,2.09a4,4,0,0,0-1.37-.23c-1.19,0-2.61.86-3.57,3.25v9.05H98.3Z"/><rect class="cls-1" x="1.5" y="227.5" width="123" height="54" rx="12" ry="12"/><path d="M23.37,339H25.8v17h8.31v2.05H23.37Z"/><path d="M36.36,354.41c0-3.07,2.66-4.61,8.66-5.26,0-1.82-.6-3.56-2.91-3.56a7.73,7.73,0,0,0-4.2,1.51L37,345.46a10.31,10.31,0,0,1,5.53-1.84c3.44,0,4.9,2.29,4.9,5.8v8.65h-2l-.2-1.69h-.08a7.49,7.49,0,0,1-4.66,2A3.84,3.84,0,0,1,36.36,354.41Zm8.66.22v-3.92c-4.72.57-6.32,1.73-6.32,3.53a2.16,2.16,0,0,0,2.47,2.26C42.53,356.5,43.66,355.83,45,354.63Z"/><path d="M50.45,363.86l.47-1.9a3.83,3.83,0,0,0,1.07.21c1.59,0,2.6-1.28,3.18-3l.32-1L49.83,344h2.46l2.88,7.81c.44,1.22.92,2.66,1.37,4h.12c.4-1.29.8-2.73,1.19-4L60.36,344H62.7l-5.32,15.26c-1,2.8-2.45,4.92-5.27,4.92A4.7,4.7,0,0,1,50.45,363.86Z"/><path d="M64.26,351c0-4.71,3.07-7.42,6.53-7.42s6.53,2.71,6.53,7.42-3.07,7.38-6.53,7.38S64.26,355.71,64.26,351Zm10.6,0c0-3.23-1.64-5.43-4.07-5.43s-4.07,2.2-4.07,5.43,1.65,5.39,4.07,5.39S74.86,354.27,74.86,351Z"/><path d="M80.84,352.9V344h2.39v8.63c0,2.62.79,3.75,2.66,3.75,1.44,0,2.44-.72,3.77-2.38V344h2.39v14.1h-2l-.2-2.21H89.8c-1.31,1.54-2.72,2.56-4.65,2.56C82.18,358.42,80.84,356.5,80.84,352.9Z"/><path d="M97.22,353.71v-7.8h-2.1v-1.8l2.21-.14.29-4h2v4h3.82v1.94H99.61v7.84c0,1.73.55,2.72,2.18,2.72a4.61,4.61,0,0,0,1.6-.37l.46,1.8a8.71,8.71,0,0,1-2.61.52C98.24,358.42,97.22,356.52,97.22,353.71Z"/><rect class="cls-1" x="1.5" y="319.5" width="123" height="54" rx="12" ry="12"/><path d="M33.8,431h5.44c4.26,0,7.14,1.44,7.14,5.61,0,4-2.86,5.88-7,5.88H36.22v7.55H33.8Zm5.25,9.52c3.33,0,4.92-1.2,4.92-3.91s-1.69-3.64-5-3.64H36.22v7.55Z"/><path d="M47.88,446.41c0-3.07,2.65-4.61,8.66-5.26,0-1.82-.61-3.56-2.91-3.56a7.73,7.73,0,0,0-4.2,1.51l-.94-1.64A10.38,10.38,0,0,1,54,435.62c3.44,0,4.9,2.29,4.9,5.8v8.65H57l-.21-1.69h-.08a7.47,7.47,0,0,1-4.66,2A3.84,3.84,0,0,1,47.88,446.41Zm8.66.22v-3.92c-4.72.57-6.32,1.73-6.32,3.53a2.16,2.16,0,0,0,2.47,2.26C54.05,448.5,55.18,447.83,56.54,446.63Z"/><path d="M63,431.53a1.65,1.65,0,0,1,3.29,0,1.65,1.65,0,0,1-3.29,0Zm.43,4.44h2.39v14.1H63.38Z"/><path d="M70.52,436h2l.2,2h.08a6.72,6.72,0,0,1,4.73-2.38c3,0,4.3,1.92,4.3,5.52v8.93H79.42v-8.63c0-2.62-.79-3.75-2.66-3.75-1.44,0-2.44.74-3.85,2.17v10.21H70.52Z"/><path d="M86.79,445.71v-7.8H84.7v-1.8l2.2-.14.29-4h2v4H93v1.94H89.18v7.84c0,1.73.56,2.72,2.18,2.72A4.72,4.72,0,0,0,93,448.1l.46,1.8a8.78,8.78,0,0,1-2.62.52C87.81,450.42,86.79,448.52,86.79,445.71Z"/><rect class="cls-1" x="1.5" y="411.5" width="123" height="54" rx="12" ry="12"/><path d="M178.7,94.38l1.72-1.22a3.6,3.6,0,0,0,3.29,2.13c2,0,3-1.15,3-4.05V78h2.42V91.47c0,3.29-1.52,6-5.25,6A5.57,5.57,0,0,1,178.7,94.38Z"/><path d="M193.2,93.41c0-3.07,2.65-4.61,8.66-5.26,0-1.82-.6-3.56-2.91-3.56a7.73,7.73,0,0,0-4.2,1.51l-.94-1.64a10.38,10.38,0,0,1,5.54-1.84c3.44,0,4.9,2.29,4.9,5.8v8.65h-2l-.2-1.69H202a7.52,7.52,0,0,1-4.67,2A3.84,3.84,0,0,1,193.2,93.41Zm8.66.22V89.71c-4.72.57-6.32,1.73-6.32,3.53A2.16,2.16,0,0,0,198,95.5C199.37,95.5,200.5,94.83,201.86,93.63Z"/><path d="M206.67,83h2.46l2.67,8c.42,1.38.88,2.81,1.3,4.16h.12c.42-1.35.88-2.78,1.3-4.16l2.66-8h2.34l-5,14.1h-2.77Z"/><path d="M220.79,93.41c0-3.07,2.65-4.61,8.66-5.26,0-1.82-.61-3.56-2.91-3.56a7.73,7.73,0,0,0-4.2,1.51l-.94-1.64a10.38,10.38,0,0,1,5.54-1.84c3.44,0,4.9,2.29,4.9,5.8v8.65h-2l-.21-1.69h-.08a7.47,7.47,0,0,1-4.66,2A3.84,3.84,0,0,1,220.79,93.41Zm8.66.22V89.71c-4.72.57-6.32,1.73-6.32,3.53,0,1.6,1.08,2.26,2.47,2.26S228.08,94.83,229.45,93.63Z"/><path d="M235.13,94.59l1.45-1.66a7.48,7.48,0,0,0,5.26,2.36c2.49,0,4-1.25,4-3.1s-1.38-2.56-3.18-3.35l-2.73-1.2c-1.78-.76-3.86-2.1-3.86-4.9s2.53-5.06,6-5.06A7.88,7.88,0,0,1,247.65,80l-1.29,1.56A6.08,6.08,0,0,0,242,79.81c-2.13,0-3.55,1.08-3.55,2.78s1.66,2.52,3.16,3.15l2.71,1.18c2.2.94,3.92,2.26,3.92,5.09,0,3-2.48,5.41-6.49,5.41A9.13,9.13,0,0,1,235.13,94.59Z"/><path d="M250.72,90c0-4.71,3.18-7.42,6.78-7.42a5.94,5.94,0,0,1,4.13,1.66l-1.22,1.57a4.09,4.09,0,0,0-2.8-1.24c-2.55,0-4.42,2.2-4.42,5.43s1.76,5.39,4.36,5.39a5.07,5.07,0,0,0,3.31-1.4l1,1.6a6.82,6.82,0,0,1-4.56,1.79C253.58,97.42,250.72,94.71,250.72,90Z"/><path d="M265,83h2l.2,2.57h.08c1-1.79,2.42-2.92,4-2.92a3.34,3.34,0,0,1,1.51.29L272.3,85a4,4,0,0,0-1.37-.23c-1.19,0-2.61.86-3.56,3.25v9H265Z"/><path d="M274.61,78.53a1.65,1.65,0,0,1,3.3,0,1.65,1.65,0,0,1-3.3,0Zm.44,4.44h2.38v14.1h-2.38Z"/><path d="M282.19,83h2l.2,1.63h.08a7.43,7.43,0,0,1,4.5-2c3.64,0,5.59,2.83,5.59,7.19,0,4.8-2.89,7.61-6.11,7.61a6.42,6.42,0,0,1-3.91-1.64l.07,2.47V103h-2.39Zm9.87,6.86c0-3.11-1.06-5.2-3.71-5.2a5.81,5.81,0,0,0-3.77,1.92v7.39A5.45,5.45,0,0,0,288,95.41C290.34,95.41,292.06,93.31,292.06,89.83Z"/><path d="M298.2,92.71v-7.8h-2.1v-1.8l2.21-.14.29-4h2v4h3.82v1.94h-3.82v7.84c0,1.73.55,2.72,2.18,2.72a5,5,0,0,0,1.61-.37l.46,1.8a8.84,8.84,0,0,1-2.62.52C299.22,97.42,298.2,95.52,298.2,92.71Z"/><rect class="cls-1" x="167.5" y="58.5" width="148" height="54" rx="12" ry="12"/><path class="cls-2" d="M62.51,136.33Q62.77,95.67,63,55"/><polygon points="70.73 129.75 69.28 128.38 62.52 135.56 55.85 128.3 54.38 129.66 62.5 138.5 70.73 129.75"/><line class="cls-2" x1="63" y1="225.83" x2="63" y2="191"/><polygon points="71.18 219.2 69.72 217.84 63 225.06 56.29 217.84 54.82 219.2 63 228 71.18 219.2"/><line class="cls-2" x1="63" y1="315.83" x2="63" y2="281"/><polygon points="71.18 309.2 69.72 307.84 63 315.06 56.29 307.84 54.82 309.2 63 318 71.18 309.2"/><line class="cls-2" x1="62" y1="407.83" x2="62" y2="373"/><polygon points="70.18 401.2 68.72 399.84 62 407.06 55.29 399.84 53.82 401.2 62 410 70.18 401.2"/><path class="cls-2" d="M243,55.83A33.52,33.52,0,0,0,239,41c-13.16-24-59-30.13-114-16"/><polygon points="250.41 48.54 248.83 47.31 242.75 55.07 235.45 48.45 234.11 49.93 243 58 250.41 48.54"/><path class="cls-2" d="M249.3,114.15A32.23,32.23,0,0,1,248,128c-9.13,27.61-59.2,41.52-124,37"/><polygon points="241.44 121.33 242.99 122.59 249.2 114.93 256.39 121.68 257.76 120.22 249 112 241.44 121.33"/></g></g></svg>